<svg width="92" height="80" viewBox="0 0 92 80" fill="none" xmlns="http://www.w3.org/2000/svg">
<path d="M45.9192 31.2109C54.524 31.2109 61.5245 24.2104 61.5245 15.6055C61.5245 7.00058 54.524 0 45.9192 0C37.3144 0 30.3138 7.00058 30.3138 15.6055C30.3138 24.2104 37.3144 31.2109 45.9192 31.2109ZM45.9192 5.3812C51.5568 5.3812 56.1434 9.96777 56.1434 15.6055C56.1434 21.2432 51.5568 25.8297 45.9192 25.8297C40.2815 25.8297 35.695 21.2432 35.695 15.6055C35.695 9.96777 40.2815 5.3812 45.9192 5.3812Z" fill="#2352DE"/>
<path d="M77.4887 31.2104C82.9285 31.2104 87.3541 26.7848 87.3541 21.345C87.3541 15.9051 82.9285 11.4795 77.4887 11.4795C72.0489 11.4795 67.6232 15.9051 67.6232 21.345C67.6232 26.7848 72.0489 31.2104 77.4887 31.2104ZM77.4887 16.8607C79.9613 16.8607 81.973 18.8723 81.973 21.345C81.973 23.8176 79.9613 25.8293 77.4887 25.8293C75.016 25.8293 73.0044 23.8176 73.0044 21.345C73.0044 18.8723 75.016 16.8607 77.4887 16.8607Z" fill="#2352DE"/>
<path d="M79.6591 37.3091H75.4977C70.5938 37.3091 66.3606 40.2063 64.4317 44.3678C60.4602 40.0323 54.7556 37.3091 48.4267 37.3091H43.412C37.083 37.3091 31.3784 40.0323 27.407 44.3678C25.4778 40.2063 21.2446 37.3091 16.3408 37.3091H12.1794C5.46367 37.3091 0 42.7398 0 49.415V69.0044C0 71.9024 2.36663 74.26 5.27569 74.26H21.7289C22.0048 77.4708 24.7047 80 27.986 80H63.8527C67.1337 80 69.8336 77.4708 70.1097 74.26H86.375C89.3877 74.26 91.8386 71.8188 91.8386 68.8179V49.415C91.8384 42.7398 86.3748 37.3091 79.6591 37.3091ZM5.38116 49.415C5.38116 45.707 8.43084 42.6903 12.1794 42.6903H16.3408C20.0893 42.6903 23.139 45.707 23.139 49.415V51.2574C21.3297 55.9684 21.704 58.7918 21.704 68.8788H5.38116V49.415ZM64.7533 73.7182C64.7533 74.2148 64.3493 74.6188 63.8527 74.6188H27.9858C27.4891 74.6188 27.0852 74.2147 27.0852 73.7182V59.0172C27.0852 50.0145 34.4093 42.6903 43.4118 42.6903H48.4265C57.4292 42.6903 64.7533 50.0145 64.7533 59.0171V73.7182ZM86.4573 68.8179C86.4573 68.9106 87.4603 68.8788 70.1344 68.8788C70.1344 58.7171 70.5059 55.9607 68.6995 51.2574V49.415C68.6995 45.707 71.7491 42.6903 75.4977 42.6903H79.6591C83.4076 42.6903 86.4573 45.707 86.4573 49.415V68.8179Z" fill="#2352DE"/>
<path d="M14.3497 31.2104C19.7896 31.2104 24.2152 26.7848 24.2152 21.345C24.2152 15.9051 19.7896 11.4795 14.3497 11.4795C8.90991 11.4795 4.48425 15.9051 4.48425 21.345C4.48425 26.7848 8.90991 31.2104 14.3497 31.2104ZM14.3497 16.8607C16.8224 16.8607 18.834 18.8723 18.834 21.345C18.834 23.8176 16.8224 25.8293 14.3497 25.8293C11.8771 25.8293 9.86542 23.8176 9.86542 21.345C9.86542 18.8723 11.8771 16.8607 14.3497 16.8607Z" fill="#2352DE"/>
</svg>
