<svg width="80" height="80" viewBox="0 0 80 80" fill="none" xmlns="http://www.w3.org/2000/svg">
<path d="M48.8686 15.4184C51.9439 12.9341 52.6402 10.2785 52.6825 8.488C52.786 4.13219 49.3464 0.944666 48.9538 0.595757C47.9813 -0.269248 46.4916 -0.18206 45.6264 0.790602C44.7614 1.76327 44.8486 3.25281 45.8212 4.11797C45.8433 4.13766 48.0223 6.17642 47.9702 8.37628C47.9423 9.54832 47.2673 10.6524 45.9066 11.7516C42.8312 14.2359 42.135 16.8915 42.0926 18.682C41.989 23.0378 45.4287 26.2253 45.8212 26.5744C46.2714 26.9747 46.8333 27.1719 47.3928 27.1719C48.0422 27.1719 48.6886 26.9062 49.1533 26.3836C50.0183 25.4109 49.9358 23.9254 48.9631 23.0604C48.3445 22.4979 46.7511 20.6318 46.8053 18.776C46.8395 17.6106 47.5144 16.5121 48.8686 15.4184Z" fill="#2352DE"/>
<path d="M33.9147 15.4184C36.99 12.9341 37.6862 10.2785 37.7285 8.488C37.832 4.13219 34.3925 0.944666 33.9998 0.595757C33.0275 -0.269248 31.5376 -0.18206 30.6725 0.790602C29.8075 1.76327 29.8947 3.25281 30.8673 4.11797C30.8894 4.13766 33.0684 6.17642 33.0162 8.37628C32.9884 9.54832 32.3134 10.6524 30.9526 11.7516C27.8773 14.2359 27.1811 16.8915 27.1388 18.682C27.0353 23.0378 30.4748 26.2253 30.8673 26.5744C31.3175 26.9747 31.8794 27.1719 32.4389 27.1719C33.0883 27.1719 33.7347 26.9062 34.1993 26.3836C35.0643 25.4109 34.9818 23.9254 34.0092 23.0604C33.3906 22.4979 31.7972 20.6318 31.8514 18.776C31.8856 17.6106 32.5605 16.5121 33.9147 15.4184Z" fill="#2352DE"/>
<path d="M67.6553 38.4608H64.8659V36.7324C64.8659 35.4308 63.8108 34.3755 62.509 34.3755H2.35699C1.05543 34.3755 0.00012207 35.4306 0.00012207 36.7324V49.1711C0.00012207 60.1621 6.0837 69.8266 15.2171 75.2863H2.3584C1.05684 75.2863 0.00152833 76.3414 0.00152833 77.6431C0.00152833 78.9449 1.05653 80 2.3584 80H62.5092C63.8108 80 64.8661 78.9449 64.8661 77.6431C64.8661 76.3414 63.8109 75.2863 62.5092 75.2863H49.6491C54.8428 72.1816 59.0501 67.7177 61.7133 62.4224H67.6554C74.2617 62.4224 79.6364 57.0477 79.6364 50.4415C79.6364 43.8353 74.2615 38.4608 67.6553 38.4608ZM60.1523 49.1711C60.1522 63.571 47.7174 75.2863 32.433 75.2863C17.1487 75.2863 4.71386 63.571 4.71386 49.1711V39.0892H60.1522V49.1711H60.1523ZM67.6553 57.7088H63.5997C64.4233 54.9965 64.8659 52.132 64.8659 49.1711V43.1742H67.6553C71.6625 43.1742 74.9226 46.4344 74.9226 50.4415C74.9226 54.4487 71.6625 57.7088 67.6553 57.7088Z" fill="#2352DE"/>
<path d="M18.9608 15.4183C22.0361 12.9341 22.7323 10.2785 22.7747 8.48797C22.8781 4.13218 19.4386 0.944663 19.046 0.595756C18.0735 -0.269248 16.5838 -0.18206 15.7186 0.7906C14.8536 1.7631 14.9408 3.2528 15.9135 4.11796C15.9355 4.13764 18.1146 6.1764 18.0624 8.37626C18.0346 9.54829 17.3596 10.6524 15.9988 11.7516C12.9235 14.2358 12.2272 16.8914 12.1849 18.6819C12.0816 23.0376 15.5211 26.2251 15.9136 26.5741C16.3627 26.9735 16.9219 27.1699 17.4791 27.1699C18.1286 27.1699 18.7753 26.9029 19.2411 26.3793C20.1061 25.4066 20.0189 23.9171 19.0463 23.0519C19.0242 23.0323 16.8452 20.9935 16.8974 18.7936C16.9249 17.6216 17.5999 16.5174 18.9608 15.4183Z" fill="#2352DE"/>
</svg>
