<svg width="81" height="80" viewBox="0 0 81 80" fill="none" xmlns="http://www.w3.org/2000/svg">
<path d="M71.6863 0H27.7647C23.0075 0 19.1373 3.87027 19.1373 8.62745V28.2353H8.62745C3.87027 28.2353 0 32.1056 0 36.8627V61.9608C0 66.718 3.87027 70.5882 8.62745 70.5882H23.0544L28.6304 78.9522C29.0668 79.6068 29.8016 80 30.5882 80C31.3749 80 32.1096 79.6068 32.546 78.9522L38.122 70.5882H52.549C57.3062 70.5882 61.1765 66.718 61.1765 61.9608V42.3529H71.6863C76.4434 42.3529 80.3137 38.4827 80.3137 33.7255V8.62745C80.3137 3.87027 76.4434 0 71.6863 0ZM56.4706 61.9608C56.4706 64.1231 54.7114 65.8824 52.549 65.8824H36.8627C36.0761 65.8824 35.3413 66.2756 34.9049 66.9302L30.5882 73.4052L26.2715 66.9302C25.8351 66.2756 25.1004 65.8824 24.3137 65.8824H8.62745C6.4651 65.8824 4.70588 64.1231 4.70588 61.9608V36.8627C4.70588 34.7004 6.4651 32.9412 8.62745 32.9412H19.1373V33.7255C19.1373 35.1373 19.4803 36.4695 20.0839 37.6471H11.7647C10.4653 37.6471 9.41176 38.7006 9.41176 40C9.41176 41.2995 10.4653 42.3529 11.7647 42.3529H42.1918L45.3291 47.0588H11.7647C10.4653 47.0588 9.41176 48.1123 9.41176 49.4118C9.41176 50.7112 10.4653 51.7647 11.7647 51.7647H49.7255C50.5123 51.7647 51.2469 51.3715 51.6831 50.7169L56.4706 43.5358V61.9608ZM75.6078 33.7255C75.6078 35.8878 73.8486 37.6471 71.6863 37.6471H56C55.2132 37.6471 54.4786 38.0403 54.0423 38.6949L49.7255 45.1699L45.4086 38.6949C44.9724 38.0403 44.2376 37.6471 43.451 37.6471H27.7647C25.6024 37.6471 23.8431 35.8878 23.8431 33.7255V8.62745C23.8431 6.4651 25.6024 4.70588 27.7647 4.70588H71.6863C73.8486 4.70588 75.6078 6.4651 75.6078 8.62745V33.7255Z" fill="#2352DE"/>
<path d="M49.4119 56.4707H11.7647C10.4652 56.4707 9.41174 57.5242 9.41174 58.8237C9.41174 60.1232 10.4652 61.1768 11.7647 61.1768H49.4119C50.7114 61.1768 51.7649 60.1232 51.7649 58.8237C51.7649 57.5242 50.7114 56.4707 49.4119 56.4707Z" fill="#2352DE"/>
<path d="M61.0442 16.3828L54.6811 15.4581L51.8354 9.69192C51.439 8.88877 50.6212 8.38037 49.7255 8.38037C48.8298 8.38037 48.0119 8.88877 47.6155 9.69192L44.7698 15.4581L38.4067 16.3828C37.5204 16.5114 36.784 17.1323 36.5072 17.9842C36.2304 18.836 36.4613 19.7711 37.1025 20.3962L41.7069 24.8842L40.6199 31.2217C40.4685 32.1046 40.8315 32.9966 41.556 33.5232C42.2804 34.0494 43.2409 34.119 44.034 33.7024L49.7255 30.71L55.4168 33.7024C55.7611 33.8832 56.1369 33.9727 56.5115 33.9727C56.9994 33.9727 57.485 33.8211 57.8947 33.5234C58.6193 32.997 58.9823 32.1047 58.8309 31.2219L57.7438 24.8844L62.3482 20.3963C62.9896 19.7712 63.2205 18.8362 62.9437 17.9844C62.667 17.1325 61.9307 16.5116 61.0442 16.3828ZM53.5733 22.378C53.0186 22.9186 52.7656 23.6974 52.8966 24.4607L53.3868 27.3183L50.8205 25.969C50.4776 25.7889 50.1016 25.6987 49.7256 25.6987C49.3496 25.6987 48.9735 25.7887 48.6307 25.969L46.0644 27.3183L46.5546 24.4607C46.6856 23.6974 46.4326 22.9186 45.8779 22.378L43.8018 20.3543L46.6712 19.9374C47.4376 19.826 48.1001 19.3447 48.4428 18.6503L49.7259 16.0503L51.0091 18.6503C51.3518 19.3447 52.0143 19.826 52.7807 19.9374L55.65 20.3543L53.5733 22.378Z" fill="#2352DE"/>
</svg>
